inDegrees=yes
name=ik_S56_A04_T01
DataType=double
version=3
OpenSimVersion=4.3-2021-08-27-4bc7ad9
endheader
time	pelvis_tilt	pelvis_list	pelvis_rotation	pelvis_tx	pelvis_ty	pelvis_tz	hip_flexion_r	hip_adduction_r	hip_rotation_r	knee_angle_r	knee_angle_r_beta	ankle_angle_r	subtalar_angle_r	mtp_angle_r	hip_flexion_l	hip_adduction_l	hip_rotation_l	knee_angle_l	knee_angle_l_beta	ankle_angle_l	subtalar_angle_l	mtp_angle_l	lumbar_extension	lumbar_bending	lumbar_rotation	arm_flex_r	arm_add_r	arm_rot_r	elbow_flex_r	pro_sup_r	wrist_flex_r	wrist_dev_r	arm_flex_l	arm_add_l	arm_rot_l	elbow_flex_l	pro_sup_l	wrist_flex_l	wrist_dev_l
6.539999999999949	-8.131551203490606	-1.135877636840735	38.66944100707408	0	0.9399999999999999	0	34.46034666263145	-12.31717945593512	0.9764740984979775	52.1320672359936	0.9098762191391481	0	0	0	38.5101952745085	8.0435253055961	-2.991026929577973	53.96142102881691	0.9418044660077609	0	0	0	0	0	0	14.99747406956866	-14.99747406956866	2.526272017707403	52.29981953018787	87.47372812831703	0	0	14.99747406956866	-14.99747406956866	2.526272017707403	52.29981953018787	87.47372812785713	0	0
6.559999999999948	-8.372517792319565	-1.312937236773291	38.75109650894755	0	0.9399999999999999	0	33.58161308314975	-12.25033086405123	0.4623108136208067	50.41700372578802	0.8799427140052493	0	0	0	37.64454040565507	7.799030925851647	-3.013601606347386	52.23433356091614	0.9116611032229607	0	0	0	0	0	0	15.00603325115255	-15.00603325115255	2.527623254557664	52.32003970466683	87.4723768915436	0	0	15.00603325115255	-15.00603325115255	2.527623254557664	52.32003970466683	87.47237689108391	0	0
6.579999999999948	-8.488475757695063	-1.459277282196737	38.82451299167534	0	0.9399999999999999	0	32.55805574339598	-12.10633106403536	-0.1169711091822932	48.70250495034747	0.8500190653524008	0	0	0	36.66365142174639	7.522927289725925	-2.978007779038654	50.57325936062423	0.8826698893079351	0	0	0	0	0	0	15.01229796402719	-15.01229796402719	2.528610787553963	52.33480642495388	87.4713893586035	0	0	15.01229796402719	-15.01229796402719	2.528610787553963	52.33480642495388	87.47138935814397	0	0
6.599999999999947	-8.602953483365431	-1.570949231828174	38.86016661139326	0	0.9399999999999999	0	31.50552601334081	-12.00332596368893	-0.652196013395749	46.89627356367595	0.81849438060212	0	0	0	35.65584854532444	7.248318896495762	-2.993406614974356	48.83113860916533	0.8522641462276594	0	0	0	0	0	0	15.02117981731569	-15.02117981731569	2.530012100331762	52.35576552351232	87.46998804590541	0	0	15.02117981731569	-15.02117981731569	2.530012100331762	52.35576552351232	87.46998804544607	0	0
6.619999999999947	-8.613451504734185	-1.657177484434483	38.8891192792835	0	0.9399999999999999	0	29.19403496340812	-11.75463738198068	-1.825180820791047	43.32299604872617	0.7561289228787655	0	0	0	34.56269029672517	6.910230963583957	-2.93172193494828	47.4128850580199	0.8275109521320698	0	0	0	0	0	0	15.0297464520655	-15.0297464520655	2.531363359577026	52.37597115076215	87.46863678673698	0	0	15.0297464520655	-15.0297464520655	2.531363359577026	52.37597115076215	87.46863678627787	0	0
6.639999999999946	-8.564220641482894	-1.700477149344941	38.92189031901682	0	0.9399999999999999	0	29.17184590302864	-11.71383644742901	-1.877084497184412	43.3261561707069	0.7561840774120938	0	0	0	33.37185719442917	6.587840334324486	-2.852853300496987	45.3593177731418	0.7916694415997068	0	0	0	0	0	0	15.0377952202642	-15.0377952202642	2.53262934262288	52.39487708152467	87.46737080376303	0	0	15.0377952202642	-15.0377952202642	2.53262934262288	52.39487708152467	87.46737080330414	0	0
6.659999999999946	-8.470684491760677	-1.720458956844595	38.94985457941035	0	0.9399999999999999	0	26.73260491100181	-11.59175455065306	-2.86369711767232	40.03010063769885	0.6986570560325267	0	0	0	32.13463938677081	6.256249354186059	-2.745618196190602	43.91432813161619	0.7664496146978722	0	0	0	0	0	0	15.04621407339896	-15.04621407339896	2.533956830016057	52.41471909625623	87.46604331644532	0	0	15.04621407339896	-15.04621407339896	2.533956830016057	52.41471909625623	87.46604331598664	0	0
6.679999999999946	-8.353159519841942	-1.723891269921613	38.98377430918133	0	0.9399999999999999	0	25.49043880788254	-11.46519848618969	-3.401966862763141	38.21738647886649	0.6670192255633824	0	0	0	30.86982734092998	6.018458055167958	-2.556970744872638	41.82561307841621	0.7299946598835642	0	0	0	0	0	0	15.05484143228812	-15.05484143228812	2.535315583630235	52.43501575317806	87.46468456290835	0	0	15.05484143228812	-15.05484143228812	2.535315583630235	52.43501575317806	87.46468456244982	0	0
